<svg width="42" height="38" viewBox="0 0 42 38" fill="none" xmlns="http://www.w3.org/2000/svg">
<path d="M21.4764 0.000186002C21.7811 0.0649172 22.0865 0.1283 22.3912 0.193705C24.6925 0.686606 26.639 1.78434 27.8783 3.8699C29.8551 7.19479 31.7566 10.5669 33.68 13.9241C35.8194 17.6597 37.945 21.404 40.0825 25.1408C41.9866 28.4684 41.6271 32.1689 39.0276 34.9665C37.3111 36.814 35.1334 37.5753 32.6575 37.3346C29.9001 37.0662 27.8829 35.5861 26.4949 33.187C25.0931 30.7643 23.7196 28.3248 22.3343 25.892C21.8598 25.0586 21.3892 24.2225 20.9133 23.3897C20.8439 23.2677 20.7547 23.1571 20.6357 22.9845C20.4963 23.209 20.3799 23.3803 20.2788 23.561C18.5419 26.6404 16.8062 29.7212 15.0713 32.802C14.294 34.1823 13.3396 35.394 11.9781 36.2287C9.23719 37.909 6.49166 37.756 3.78314 36.189C1.76068 35.0191 0.656251 33.1614 0.217389 30.8675C-0.158684 28.9033 0.162531 27.0517 1.14006 25.3242C3.11163 21.8389 5.08585 18.3555 7.07527 14.8809C8.31981 12.707 10.0891 11.2243 12.5505 10.6957C16.0263 9.94923 19.4923 11.5048 21.292 14.6402C23.4301 18.3643 25.5537 22.0971 27.6839 25.8259C28.6463 27.5109 29.6059 29.198 30.5702 30.8817C31.177 31.941 32.0587 32.6018 33.2814 32.6402C34.52 32.6793 35.5061 32.1311 36.1505 31.0496C36.7936 29.97 36.7685 28.8372 36.1591 27.7543C34.5451 24.8866 32.9047 22.0344 31.2768 19.1748C28.9701 15.1237 26.6582 11.0753 24.3614 7.01812C22.795 4.25154 19.1208 4.02835 17.2629 6.59872C17.0349 6.91428 16.8155 7.24266 16.5465 7.51844C15.8981 8.18261 15.0759 8.36197 14.1843 8.34107C13.2279 8.31949 12.2709 8.32826 11.3139 8.32016C11.1889 8.31882 11.0634 8.29454 10.9153 8.27903C10.9451 8.1725 10.951 8.10304 10.9821 8.04843C11.7468 6.71335 12.456 5.34051 13.2953 4.056C14.6099 2.04596 16.4255 0.714252 18.7891 0.243602C19.1017 0.181568 19.4196 0.149877 19.7335 0.0952599C19.7904 0.0851457 19.8399 0.0325516 19.8935 -0.000488281C20.4216 -0.000488281 20.9497 -0.000488281 21.4784 -0.000488281L21.4764 0.000186002ZM20.4837 22.7862C20.4189 22.6204 20.3971 22.5361 20.3561 22.4633C19.3462 20.6777 18.3436 18.8882 17.3204 17.1108C15.914 14.6665 12.6324 14.6315 11.218 17.0717C9.18894 20.5719 7.19358 24.093 5.21671 27.6249C4.94771 28.105 4.76529 28.6896 4.72696 29.2391C4.62451 30.6969 5.63112 32.0954 6.97877 32.5182C8.35749 32.951 9.79965 32.386 10.5974 31.0786C11.0092 30.4036 11.3932 29.7104 11.7851 29.0227C12.6404 27.5217 13.4983 26.0221 14.3449 24.5151C14.9345 23.4652 15.7871 22.8382 16.99 22.7815C17.5273 22.7559 18.0666 22.7842 18.6053 22.7856C19.2068 22.7869 19.8082 22.7862 20.4837 22.7862Z" fill="#DFBF6C"/>
</svg>
